HIERARCHY
ROOT Hips
{
	OFFSET -3.958830 18.904000 13.208200
	CHANNELS 6 Xposition Yposition Zposition Zrotation Yrotation Xrotation 
	JOINT LHipJoint
	{
		OFFSET 0.000000 0.000000 0.000000
		CHANNELS 3 Zrotation Yrotation Xrotation
		JOINT LeftUpLeg
		{
			OFFSET 1.800000 -1.400000 0.085000
			CHANNELS 3 Zrotation Yrotation Xrotation
			JOINT LeftLeg
			{
				OFFSET 2.215000 -6.000000 0.000000
				CHANNELS 3 Zrotation Yrotation Xrotation
				JOINT LeftFoot
				{
					OFFSET 2.500000 -6.900000 0.000000
					CHANNELS 3 Zrotation Yrotation Xrotation
					JOINT LeftToeBase
					{
						OFFSET 0.200000 -0.500000 1.950000
						CHANNELS 3 Zrotation Yrotation Xrotation
						End Site
						{
							OFFSET 0.000000 0.000000 0.000000
						}
					}
				}
			}
		}
	}
	JOINT RHipJoint
	{
		OFFSET 0.000000 0.000000 0.000000
		CHANNELS 3 Zrotation Yrotation Xrotation
		JOINT RightUpLeg
		{
			OFFSET -1.800000 -1.400000 0.085000
			CHANNELS 3 Zrotation Yrotation Xrotation
			JOINT RightLeg
			{
				OFFSET -2.215000 -6.000000 0.000000
				CHANNELS 3 Zrotation Yrotation Xrotation
				JOINT RightFoot
				{
					OFFSET -2.500000 -6.900000 0.000000
					CHANNELS 3 Zrotation Yrotation Xrotation
					JOINT RightToeBase
					{
						OFFSET -0.200000 -0.500000 1.950000
						CHANNELS 3 Zrotation Yrotation Xrotation
						End Site
						{
							OFFSET 0.000000 0.000000 0.000000
						}
					}
				}
			}
		}
	}
	JOINT LowerBack
	{
		OFFSET 0.000000 0.000000 0.000000
		CHANNELS 3 Zrotation Yrotation Xrotation
		JOINT Spine
		{
			OFFSET -0.087000 1.940000 -0.288900
			CHANNELS 3 Zrotation Yrotation Xrotation
			JOINT Spine1
			{
				OFFSET 0.000000 1.950000 0.060000
				CHANNELS 3 Zrotation Yrotation Xrotation
				JOINT Neck
				{
					OFFSET 0.000000 0.000000 0.000000
					CHANNELS 3 Zrotation Yrotation Xrotation
					JOINT Neck1
					{
						OFFSET 0.000000 1.600000 0.340000
						CHANNELS 3 Zrotation Yrotation Xrotation
						JOINT Head
						{
							OFFSET 0.000000 1.667000 -0.240000
							CHANNELS 3 Zrotation Yrotation Xrotation
							End Site
							{
								OFFSET 0.000000 0.000000 0.000000
							}
						}
					}
				}
				JOINT LeftShoulder
				{
					OFFSET 0.000000 0.000000 0.000000
					CHANNELS 3 Zrotation Yrotation Xrotation
					JOINT LeftArm
					{
						OFFSET 2.700000 1.550000 -0.730000
						CHANNELS 3 Zrotation Yrotation Xrotation
						JOINT LeftForeArm
						{
							OFFSET 5.450000 0.000000 0.000000
							CHANNELS 3 Zrotation Yrotation Xrotation
							JOINT LeftHand
							{
								OFFSET 3.450000 0.000000 0.000000
								CHANNELS 3 Zrotation Yrotation Xrotation
								JOINT LeftHandIndex1
								{
									OFFSET 0.750000 0.000000 0.000000
									CHANNELS 3 Zrotation Yrotation Xrotation
									End Site
									{
										OFFSET 0.000000 0.000000 0.000000
									}
								}
							}
						}
					}
				}
				JOINT RightShoulder
				{
					OFFSET 0.000000 0.000000 0.000000
					CHANNELS 3 Zrotation Yrotation Xrotation
					JOINT RightArm
					{
						OFFSET -2.700000 1.550000 -0.730000
						CHANNELS 3 Zrotation Yrotation Xrotation
						JOINT RightForeArm
						{
							OFFSET -5.450000 0.000000 0.000000
							CHANNELS 3 Zrotation Yrotation Xrotation
							JOINT RightHand
							{
								OFFSET -3.450000 0.000000 0.000000
								CHANNELS 3 Zrotation Yrotation Xrotation
								JOINT RightHandIndex1
								{
									OFFSET -0.750000 0.000000 0.000000
									CHANNELS 3 Zrotation Yrotation Xrotation
									End Site
									{
										OFFSET 0.000000 0.000000 0.000000
									}
								}
							}
						}
					}
				}
			}
		}
	}
}
MOTION
Frames: 7
Frame Time: 0.016667
0.039370 17.108670 -3.498210 -3.064943 21.412123 -5.707780 -14.903635 12.949379 3.265826 1.770801 -1.445690 -9.043864 -11.021977 5.442459 7.676822 -0.446675 3.927952 3.316258 0.308560 0.011810 0.103860 18.370316 -11.264531 3.041602 -6.018478 3.333045 -11.233769 17.238190 -11.493222 29.232585 -0.824519 -5.887321 2.348501 0.006860 0.148140 0.103010 -4.774670 -0.283711 -8.092868 20.618762 -8.952207 29.929670 -25.484124 -0.729995 5.313238 12.930455 -6.777258 -9.665492 -14.435024 3.553884 46.123619 7.367750 -8.377320 -19.064610 -25.722687 -5.397621 1.021035 -41.351894 -5.281979 -9.360290 -6.300728 -43.474280 -0.552706 -3.347463 3.043885 0.688140 -0.139500 0.001790 0.050030 -1.173010 12.342164 6.450808 -1.060425 -1.400060 -11.440745 -53.066608 59.721910 -24.693540 1.539119 -1.017085 -0.165050 0.329900 0.196960 -0.190810 
0.041700 17.105640 -3.498920 -3.101102 21.403374 -5.772447 -14.904836 12.953365 3.266498 1.834602 -1.440458 -9.002110 -11.083032 5.465793 7.706636 -0.441345 3.941939 3.313654 0.307390 0.010380 0.102780 18.367761 -11.261813 3.044832 -6.027183 3.366732 -11.233044 17.270670 -11.534082 29.347639 -0.828419 -5.909217 2.342828 0.005190 0.150080 0.103710 -4.769414 -0.287650 -8.095505 20.623074 -9.022832 30.050211 -25.614701 -0.751801 5.181211 13.021161 -6.734587 -9.658655 -14.297359 3.472339 46.063622 7.237140 -8.368980 -18.909260 -25.976583 -5.347932 1.009510 -41.176120 -5.013557 -9.481579 -6.455124 -43.401014 -0.510765 -3.342645 3.052849 0.685910 -0.136750 0.000030 0.051080 -1.129676 12.308641 6.494022 -1.635699 -1.528189 -11.207310 -51.694708 58.886439 -23.489622 1.570539 -1.069689 -0.164480 0.328800 0.196520 -0.190450 
0.045410 17.098670 -3.500110 -3.160490 21.393510 -5.877173 -14.909050 12.964878 3.268739 1.933029 -1.440300 -8.962631 -11.173681 5.508491 7.797209 -0.431292 3.964273 3.308354 0.306020 0.006400 0.104350 18.360443 -11.254098 3.052411 -6.034711 3.436702 -11.244634 17.332767 -11.602758 29.554270 -0.834581 -5.945273 2.332517 0.001380 0.150490 0.104860 -4.753438 -0.305428 -8.101867 20.587974 -9.127754 30.319394 -25.811620 -0.771220 4.880408 13.180035 -6.643568 -9.652977 -14.012989 3.296247 45.890394 7.027680 -8.337420 -18.646150 -26.470903 -5.229972 0.973286 -40.846095 -4.491098 -9.716956 -6.832768 -43.336287 -0.399838 -3.330856 3.073871 0.681870 -0.133890 -0.002610 0.051890 -1.011110 12.234310 6.601397 -2.651050 -1.769869 -10.762478 -49.413906 57.062682 -21.359168 1.630244 -1.158165 -0.162950 0.324380 0.194610 -0.191310 
0.049730 17.091350 -3.501240 -3.277767 21.375455 -6.049256 -14.911834 12.972569 3.267330 2.091934 -1.428675 -8.874025 -11.270309 5.554116 7.876920 -0.415663 3.985173 3.302379 0.311570 0.013600 0.111700 18.354863 -11.249223 3.062590 -6.007387 3.531449 -11.225859 17.395034 -11.679966 29.828121 -0.846540 -5.990988 2.316807 0.002850 0.145640 0.106430 -4.742065 -0.304258 -8.106472 20.578750 -9.265890 30.590467 -26.043368 -0.801178 4.652965 13.379957 -6.533632 -9.614813 -13.613488 3.115760 45.708431 6.758050 -8.213950 -18.434710 -27.072100 -5.030368 0.922588 -40.534073 -3.858708 -10.074980 -7.238827 -43.368905 -0.304297 -3.311042 3.102578 0.674990 -0.132980 -0.000460 0.053890 -0.868868 12.073156 6.725779 -3.920274 -1.628304 -10.126837 -46.115568 54.088338 -18.397680 1.711929 -1.265477 -0.156800 0.317620 0.185990 -0.190830 
0.053340 17.083970 -3.502540 -3.353012 21.365764 -6.299723 -14.918225 12.986926 3.266254 2.217928 -1.403323 -8.699343 -11.332944 5.604097 7.989342 -0.391220 3.997453 3.295525 0.322720 0.033650 0.120150 18.344879 -11.244365 3.072260 -6.017082 3.640722 -11.144533 17.444834 -11.768609 30.189269 -0.863893 -6.048771 2.296441 0.007140 0.134370 0.106340 -4.720372 -0.311441 -8.111696 20.421099 -9.367348 31.004406 -26.194726 -0.801012 4.475468 13.583391 -6.432880 -9.617146 -13.222316 2.977051 45.540379 6.586480 -8.034370 -18.329960 -27.674065 -4.801353 0.862772 -40.312164 -3.187603 -10.552001 -7.691526 -43.627140 -0.215841 -3.281010 3.141119 0.664120 -0.136460 0.006070 0.056350 -0.717816 11.932475 6.920317 -5.282297 -1.281776 -9.412731 -42.610000 49.981860 -15.217624 1.803452 -1.364242 -0.142910 0.307160 0.172500 -0.186880 
0.056340 17.074360 -3.503820 -3.386039 21.394960 -6.590444 -14.929639 13.010239 3.266767 2.296333 -1.376477 -8.478778 -11.360091 5.657396 8.142052 -0.370031 4.018253 3.288984 0.330500 0.046160 0.127260 18.329197 -11.235719 3.081056 -6.060010 3.750267 -11.021529 17.499608 -11.868476 30.569267 -0.880725 -6.112735 2.277524 0.009410 0.127990 0.105470 -4.684811 -0.341800 -8.118399 20.119466 -9.430946 31.509049 -26.243664 -0.766938 4.356234 13.779225 -6.324185 -9.715927 -12.848213 2.847422 45.384370 6.476710 -7.875930 -18.139740 -28.208068 -4.621743 0.829364 -40.243828 -2.451988 -11.165675 -8.108633 -44.278288 -0.180186 -3.250143 3.176100 0.657300 -0.137410 0.009850 0.059310 -0.598211 11.888681 7.230899 -6.686094 -0.929359 -8.652356 -38.954525 44.964536 -12.053353 1.890221 -1.439697 -0.134740 0.300740 0.161460 -0.185350 
0.060140 17.062590 -3.504100 -3.339475 21.491945 -6.784800 -14.934396 13.012756 3.264098 2.251104 -1.362903 -8.286518 -11.362045 5.692173 8.265884 -0.353729 4.029973 3.287553 0.330050 0.049290 0.123030 18.322483 -11.234347 3.090092 -6.250208 3.875809 -11.011289 17.651180 -12.018732 30.975241 -0.896352 -6.193376 2.253858 0.007950 0.129770 0.102600 -4.673417 -0.333941 -8.123292 19.898999 -9.492747 31.850142 -26.359232 -0.733328 4.327083 13.857728 -6.294356 -9.896948 -12.690246 2.754369 45.168471 6.614370 -7.850610 -17.871660 -28.469911 -4.470450 0.864299 -40.427647 -1.626400 -11.875995 -8.588280 -45.395780 -0.151912 -3.220144 3.209678 0.651910 -0.136800 0.008810 0.063800 -0.507800 11.908053 7.605795 -8.081265 -0.656634 -7.877288 -35.538547 39.589582 -9.289962 1.968391 -1.485190 -0.131810 0.298650 0.157030 -0.181660 
